<mxfile host="Electron" modified="2024-07-21T11:26:05.566Z" agent="Mozilla/5.0 (Macintosh; Intel Mac OS X 10_15_7) AppleWebKit/537.36 (KHTML, like Gecko) draw.io/24.6.4 Chrome/124.0.6367.207 Electron/30.0.6 Safari/537.36" etag="YYCB5FG2P_Lr_MjbFaSO" version="24.6.4" type="device">
  <diagram id="C5RBs43oDa-KdzZeNtuy" name="Page-1">
    <mxGraphModel dx="902" dy="924" grid="1" gridSize="10" guides="1" tooltips="1" connect="1" arrows="1" fold="1" page="1" pageScale="1" pageWidth="827" pageHeight="1169" background="#ffffff" math="0" shadow="0">
      <root>
        <mxCell id="WIyWlLk6GJQsqaUBKTNV-0" />
        <mxCell id="WIyWlLk6GJQsqaUBKTNV-1" parent="WIyWlLk6GJQsqaUBKTNV-0" />
        <mxCell id="WIyWlLk6GJQsqaUBKTNV-2" value="" style="rounded=0;html=1;jettySize=auto;orthogonalLoop=1;fontSize=11;endArrow=block;endFill=1;endSize=8;strokeWidth=1;shadow=0;labelBackgroundColor=none;edgeStyle=orthogonalEdgeStyle;fontColor=#000000;strokeColor=#000000;" parent="WIyWlLk6GJQsqaUBKTNV-1" source="WIyWlLk6GJQsqaUBKTNV-3" target="WIyWlLk6GJQsqaUBKTNV-6" edge="1">
          <mxGeometry relative="1" as="geometry" />
        </mxCell>
        <mxCell id="WIyWlLk6GJQsqaUBKTNV-3" value="&amp;nbsp;Request&amp;nbsp;frames with&amp;nbsp;timeout" style="rounded=1;whiteSpace=wrap;html=1;fontSize=12;glass=0;strokeWidth=1;shadow=0;fillColor=#fad9d5;strokeColor=#ae4132;fontColor=#000000;" parent="WIyWlLk6GJQsqaUBKTNV-1" vertex="1">
          <mxGeometry x="160" y="80" width="120" height="40" as="geometry" />
        </mxCell>
        <mxCell id="WIyWlLk6GJQsqaUBKTNV-5" value="1 (monocular)" style="edgeStyle=orthogonalEdgeStyle;rounded=0;html=1;jettySize=auto;orthogonalLoop=1;fontSize=11;endArrow=block;endFill=1;endSize=8;strokeWidth=1;shadow=0;labelBackgroundColor=none;fontColor=#000000;strokeColor=#000000;" parent="WIyWlLk6GJQsqaUBKTNV-1" source="WIyWlLk6GJQsqaUBKTNV-6" target="WIyWlLk6GJQsqaUBKTNV-7" edge="1">
          <mxGeometry x="-0.3846" y="-10" relative="1" as="geometry">
            <mxPoint as="offset" />
          </mxGeometry>
        </mxCell>
        <mxCell id="WIyWlLk6GJQsqaUBKTNV-6" value="Available f&lt;span&gt;rames&lt;/span&gt;?" style="rhombus;whiteSpace=wrap;html=1;shadow=0;fontFamily=Helvetica;fontSize=12;align=center;strokeWidth=1;spacing=6;spacingTop=-4;fillColor=#fad7ac;strokeColor=#b46504;fontColor=#000000;fontStyle=0" parent="WIyWlLk6GJQsqaUBKTNV-1" vertex="1">
          <mxGeometry x="170" y="170" width="100" height="80" as="geometry" />
        </mxCell>
        <mxCell id="JA1xIePqQjU5MPZLJmjR-5" style="edgeStyle=orthogonalEdgeStyle;rounded=0;orthogonalLoop=1;jettySize=auto;html=1;exitX=1;exitY=0.5;exitDx=0;exitDy=0;strokeColor=#000000;entryX=0.357;entryY=-0.029;entryDx=0;entryDy=0;entryPerimeter=0;" parent="WIyWlLk6GJQsqaUBKTNV-1" target="0DJ1_prsKRT6LsEzTFI5-2" edge="1">
          <mxGeometry relative="1" as="geometry">
            <mxPoint x="510" y="380" as="targetPoint" />
            <mxPoint x="300" y="279.9999999999999" as="sourcePoint" />
          </mxGeometry>
        </mxCell>
        <mxCell id="WIyWlLk6GJQsqaUBKTNV-7" value="Recognize faces (DeepFace)" style="rounded=1;whiteSpace=wrap;html=1;fontSize=12;glass=0;strokeWidth=1;shadow=0;fillColor=#fad9d5;strokeColor=#ae4132;fontColor=#000000;" parent="WIyWlLk6GJQsqaUBKTNV-1" vertex="1">
          <mxGeometry x="290" y="260" width="120" height="40" as="geometry" />
        </mxCell>
        <mxCell id="WIyWlLk6GJQsqaUBKTNV-8" value="0" style="rounded=0;html=1;jettySize=auto;orthogonalLoop=1;fontSize=11;endArrow=block;endFill=1;endSize=8;strokeWidth=1;shadow=0;labelBackgroundColor=none;edgeStyle=orthogonalEdgeStyle;exitX=0.5;exitY=1;exitDx=0;exitDy=0;fontColor=#000000;strokeColor=#000000;" parent="WIyWlLk6GJQsqaUBKTNV-1" source="WIyWlLk6GJQsqaUBKTNV-6" target="WIyWlLk6GJQsqaUBKTNV-11" edge="1">
          <mxGeometry x="-0.8182" y="10" relative="1" as="geometry">
            <mxPoint as="offset" />
            <mxPoint x="100.04761904761881" y="359.96190476190463" as="sourcePoint" />
          </mxGeometry>
        </mxCell>
        <mxCell id="WIyWlLk6GJQsqaUBKTNV-9" value="2 (binocular)" style="edgeStyle=orthogonalEdgeStyle;rounded=0;html=1;jettySize=auto;orthogonalLoop=1;fontSize=11;endArrow=block;endFill=1;endSize=8;strokeWidth=1;shadow=0;labelBackgroundColor=none;exitX=0;exitY=0.5;exitDx=0;exitDy=0;fontColor=#000000;strokeColor=#000000;" parent="WIyWlLk6GJQsqaUBKTNV-1" source="WIyWlLk6GJQsqaUBKTNV-6" target="WIyWlLk6GJQsqaUBKTNV-12" edge="1">
          <mxGeometry x="-0.2778" y="10" relative="1" as="geometry">
            <mxPoint as="offset" />
            <mxPoint x="150" y="320" as="sourcePoint" />
          </mxGeometry>
        </mxCell>
        <mxCell id="WIyWlLk6GJQsqaUBKTNV-11" value="Recover cameras" style="rounded=1;whiteSpace=wrap;html=1;fontSize=12;glass=0;strokeWidth=1;shadow=0;fillColor=#fad9d5;strokeColor=#ae4132;fontColor=#000000;" parent="WIyWlLk6GJQsqaUBKTNV-1" vertex="1">
          <mxGeometry x="160" y="360" width="120" height="40" as="geometry" />
        </mxCell>
        <mxCell id="JA1xIePqQjU5MPZLJmjR-2" style="edgeStyle=orthogonalEdgeStyle;rounded=0;orthogonalLoop=1;jettySize=auto;html=1;exitX=0.5;exitY=1;exitDx=0;exitDy=0;entryX=0.5;entryY=0;entryDx=0;entryDy=0;fontColor=#000000;strokeColor=#000000;" parent="WIyWlLk6GJQsqaUBKTNV-1" source="WIyWlLk6GJQsqaUBKTNV-12" target="JA1xIePqQjU5MPZLJmjR-0" edge="1">
          <mxGeometry relative="1" as="geometry" />
        </mxCell>
        <mxCell id="WIyWlLk6GJQsqaUBKTNV-12" value="Detect objects (YOLOv8)" style="rounded=1;whiteSpace=wrap;html=1;fontSize=12;glass=0;strokeWidth=1;shadow=0;fillColor=#fad9d5;strokeColor=#ae4132;fontColor=#000000;" parent="WIyWlLk6GJQsqaUBKTNV-1" vertex="1">
          <mxGeometry x="20" y="260" width="120" height="40" as="geometry" />
        </mxCell>
        <mxCell id="JA1xIePqQjU5MPZLJmjR-3" style="edgeStyle=orthogonalEdgeStyle;rounded=0;orthogonalLoop=1;jettySize=auto;html=1;exitX=0.5;exitY=1;exitDx=0;exitDy=0;entryX=0.5;entryY=0;entryDx=0;entryDy=0;fontColor=#000000;strokeColor=#000000;" parent="WIyWlLk6GJQsqaUBKTNV-1" source="JA1xIePqQjU5MPZLJmjR-0" target="JA1xIePqQjU5MPZLJmjR-1" edge="1">
          <mxGeometry relative="1" as="geometry" />
        </mxCell>
        <mxCell id="0DJ1_prsKRT6LsEzTFI5-4" style="edgeStyle=orthogonalEdgeStyle;rounded=0;orthogonalLoop=1;jettySize=auto;html=1;entryX=0;entryY=0.5;entryDx=0;entryDy=0;strokeColor=#000000;" parent="WIyWlLk6GJQsqaUBKTNV-1" source="JA1xIePqQjU5MPZLJmjR-0" target="WIyWlLk6GJQsqaUBKTNV-7" edge="1">
          <mxGeometry relative="1" as="geometry">
            <Array as="points">
              <mxPoint x="150" y="370" />
              <mxPoint x="150" y="280" />
            </Array>
          </mxGeometry>
        </mxCell>
        <mxCell id="JA1xIePqQjU5MPZLJmjR-0" value="Available objects?" style="rhombus;whiteSpace=wrap;html=1;shadow=0;fontFamily=Helvetica;fontSize=12;align=center;strokeWidth=1;spacing=6;spacingTop=-4;fillColor=#fad7ac;strokeColor=#b46504;fontColor=#000000;" parent="WIyWlLk6GJQsqaUBKTNV-1" vertex="1">
          <mxGeometry x="30" y="330" width="100" height="80" as="geometry" />
        </mxCell>
        <mxCell id="JA1xIePqQjU5MPZLJmjR-4" style="edgeStyle=orthogonalEdgeStyle;rounded=0;orthogonalLoop=1;jettySize=auto;html=1;exitX=0.5;exitY=1;exitDx=0;exitDy=0;entryX=0.5;entryY=1;entryDx=0;entryDy=0;fontColor=#000000;strokeColor=#000000;" parent="WIyWlLk6GJQsqaUBKTNV-1" source="JA1xIePqQjU5MPZLJmjR-1" target="WIyWlLk6GJQsqaUBKTNV-7" edge="1">
          <mxGeometry relative="1" as="geometry" />
        </mxCell>
        <mxCell id="JA1xIePqQjU5MPZLJmjR-1" value="Estimate depth (SGBM)" style="rounded=1;whiteSpace=wrap;html=1;fontSize=12;glass=0;strokeWidth=1;shadow=0;fillColor=#fad9d5;strokeColor=#ae4132;fontColor=#000000;" parent="WIyWlLk6GJQsqaUBKTNV-1" vertex="1">
          <mxGeometry x="20" y="440" width="120" height="40" as="geometry" />
        </mxCell>
        <mxCell id="0DJ1_prsKRT6LsEzTFI5-12" style="edgeStyle=orthogonalEdgeStyle;rounded=0;orthogonalLoop=1;jettySize=auto;html=1;exitX=0.25;exitY=1;exitDx=0;exitDy=0;entryX=0.5;entryY=0;entryDx=0;entryDy=0;strokeColor=#000000;" parent="WIyWlLk6GJQsqaUBKTNV-1" source="0DJ1_prsKRT6LsEzTFI5-2" target="0DJ1_prsKRT6LsEzTFI5-7" edge="1">
          <mxGeometry relative="1" as="geometry" />
        </mxCell>
        <mxCell id="0DJ1_prsKRT6LsEzTFI5-13" style="edgeStyle=orthogonalEdgeStyle;rounded=0;orthogonalLoop=1;jettySize=auto;html=1;exitX=0.75;exitY=1;exitDx=0;exitDy=0;entryX=0.5;entryY=0;entryDx=0;entryDy=0;strokeColor=#000000;" parent="WIyWlLk6GJQsqaUBKTNV-1" source="0DJ1_prsKRT6LsEzTFI5-2" target="0DJ1_prsKRT6LsEzTFI5-8" edge="1">
          <mxGeometry relative="1" as="geometry" />
        </mxCell>
        <mxCell id="0DJ1_prsKRT6LsEzTFI5-2" value="Call LMM" style="rounded=1;whiteSpace=wrap;html=1;fontSize=12;glass=0;strokeWidth=1;shadow=0;fillColor=#fad9d5;strokeColor=#ae4132;fontColor=#000000;" parent="WIyWlLk6GJQsqaUBKTNV-1" vertex="1">
          <mxGeometry x="450" y="360" width="120" height="40" as="geometry" />
        </mxCell>
        <mxCell id="0DJ1_prsKRT6LsEzTFI5-3" value="Context for next LMM call" style="rounded=1;whiteSpace=wrap;html=1;fontSize=12;glass=0;strokeWidth=1;shadow=0;fillColor=#fad9d5;strokeColor=#ae4132;fontColor=#000000;" parent="WIyWlLk6GJQsqaUBKTNV-1" vertex="1">
          <mxGeometry x="570" y="260" width="110" height="40" as="geometry" />
        </mxCell>
        <mxCell id="0DJ1_prsKRT6LsEzTFI5-5" value="&lt;font color=&quot;#000000&quot; style=&quot;font-size: 11px;&quot;&gt;No&lt;/font&gt;" style="text;html=1;align=center;verticalAlign=middle;resizable=0;points=[];autosize=1;strokeColor=none;fillColor=none;fontSize=11;" parent="WIyWlLk6GJQsqaUBKTNV-1" vertex="1">
          <mxGeometry x="117" y="342" width="40" height="30" as="geometry" />
        </mxCell>
        <mxCell id="0DJ1_prsKRT6LsEzTFI5-6" value="&lt;font color=&quot;#000000&quot; style=&quot;font-size: 11px;&quot;&gt;Yes&lt;/font&gt;" style="text;html=1;align=center;verticalAlign=middle;resizable=0;points=[];autosize=1;strokeColor=none;fillColor=none;fontSize=11;" parent="WIyWlLk6GJQsqaUBKTNV-1" vertex="1">
          <mxGeometry x="73" y="401" width="40" height="30" as="geometry" />
        </mxCell>
        <mxCell id="0DJ1_prsKRT6LsEzTFI5-17" style="edgeStyle=orthogonalEdgeStyle;rounded=0;orthogonalLoop=1;jettySize=auto;html=1;exitX=0.5;exitY=1;exitDx=0;exitDy=0;entryX=0.5;entryY=0;entryDx=0;entryDy=0;strokeColor=#000000;" parent="WIyWlLk6GJQsqaUBKTNV-1" source="0DJ1_prsKRT6LsEzTFI5-7" target="0DJ1_prsKRT6LsEzTFI5-16" edge="1">
          <mxGeometry relative="1" as="geometry" />
        </mxCell>
        <mxCell id="0DJ1_prsKRT6LsEzTFI5-7" value="Available commands?" style="rhombus;whiteSpace=wrap;html=1;shadow=0;fontFamily=Helvetica;fontSize=12;align=center;strokeWidth=1;spacing=6;spacingTop=-4;fillColor=#fad7ac;strokeColor=#b46504;fontColor=#000000;" parent="WIyWlLk6GJQsqaUBKTNV-1" vertex="1">
          <mxGeometry x="390" y="450" width="100" height="80" as="geometry" />
        </mxCell>
        <mxCell id="0DJ1_prsKRT6LsEzTFI5-9" style="edgeStyle=orthogonalEdgeStyle;rounded=0;orthogonalLoop=1;jettySize=auto;html=1;entryX=1;entryY=0.5;entryDx=0;entryDy=0;strokeColor=#000000;" parent="WIyWlLk6GJQsqaUBKTNV-1" source="0DJ1_prsKRT6LsEzTFI5-8" target="0DJ1_prsKRT6LsEzTFI5-3" edge="1">
          <mxGeometry relative="1" as="geometry">
            <Array as="points">
              <mxPoint x="570" y="550" />
              <mxPoint x="720" y="550" />
              <mxPoint x="720" y="280" />
            </Array>
          </mxGeometry>
        </mxCell>
        <mxCell id="0DJ1_prsKRT6LsEzTFI5-8" value="Available summary?" style="rhombus;whiteSpace=wrap;html=1;shadow=0;fontFamily=Helvetica;fontSize=12;align=center;strokeWidth=1;spacing=6;spacingTop=-4;fillColor=#fad7ac;strokeColor=#b46504;fontColor=#000000;" parent="WIyWlLk6GJQsqaUBKTNV-1" vertex="1">
          <mxGeometry x="520" y="450" width="100" height="80" as="geometry" />
        </mxCell>
        <mxCell id="0DJ1_prsKRT6LsEzTFI5-11" style="edgeStyle=orthogonalEdgeStyle;rounded=0;orthogonalLoop=1;jettySize=auto;html=1;entryX=0.667;entryY=-0.014;entryDx=0;entryDy=0;entryPerimeter=0;strokeColor=#000000;exitX=0;exitY=0.5;exitDx=0;exitDy=0;dashed=1;" parent="WIyWlLk6GJQsqaUBKTNV-1" source="0DJ1_prsKRT6LsEzTFI5-3" target="0DJ1_prsKRT6LsEzTFI5-2" edge="1">
          <mxGeometry relative="1" as="geometry">
            <Array as="points">
              <mxPoint x="530" y="280" />
            </Array>
          </mxGeometry>
        </mxCell>
        <mxCell id="0DJ1_prsKRT6LsEzTFI5-15" value="&lt;font color=&quot;#000000&quot; style=&quot;font-size: 11px;&quot;&gt;Yes&lt;/font&gt;" style="text;html=1;align=center;verticalAlign=middle;resizable=0;points=[];autosize=1;strokeColor=none;fillColor=none;fontSize=11;" parent="WIyWlLk6GJQsqaUBKTNV-1" vertex="1">
          <mxGeometry x="570" y="520" width="40" height="30" as="geometry" />
        </mxCell>
        <mxCell id="0DJ1_prsKRT6LsEzTFI5-30" style="edgeStyle=orthogonalEdgeStyle;rounded=0;orthogonalLoop=1;jettySize=auto;html=1;exitX=0.5;exitY=1;exitDx=0;exitDy=0;entryX=0.5;entryY=0;entryDx=0;entryDy=0;strokeColor=#000000;" parent="WIyWlLk6GJQsqaUBKTNV-1" source="0DJ1_prsKRT6LsEzTFI5-16" target="0DJ1_prsKRT6LsEzTFI5-18" edge="1">
          <mxGeometry relative="1" as="geometry" />
        </mxCell>
        <mxCell id="0DJ1_prsKRT6LsEzTFI5-16" value="Send commands to ESP32-WROVER" style="rounded=1;whiteSpace=wrap;html=1;fontSize=12;glass=0;strokeWidth=1;shadow=0;fillColor=#fad9d5;strokeColor=#ae4132;fontColor=#000000;" parent="WIyWlLk6GJQsqaUBKTNV-1" vertex="1">
          <mxGeometry x="380" y="565" width="120" height="40" as="geometry" />
        </mxCell>
        <mxCell id="0DJ1_prsKRT6LsEzTFI5-23" style="edgeStyle=orthogonalEdgeStyle;rounded=0;orthogonalLoop=1;jettySize=auto;html=1;exitX=0.25;exitY=1;exitDx=0;exitDy=0;entryX=0.5;entryY=0;entryDx=0;entryDy=0;strokeColor=#000000;" parent="WIyWlLk6GJQsqaUBKTNV-1" source="0DJ1_prsKRT6LsEzTFI5-18" target="0DJ1_prsKRT6LsEzTFI5-21" edge="1">
          <mxGeometry relative="1" as="geometry" />
        </mxCell>
        <mxCell id="0DJ1_prsKRT6LsEzTFI5-24" style="edgeStyle=orthogonalEdgeStyle;rounded=0;orthogonalLoop=1;jettySize=auto;html=1;exitX=0.75;exitY=1;exitDx=0;exitDy=0;entryX=0.5;entryY=0;entryDx=0;entryDy=0;strokeColor=#000000;" parent="WIyWlLk6GJQsqaUBKTNV-1" source="0DJ1_prsKRT6LsEzTFI5-18" target="0DJ1_prsKRT6LsEzTFI5-22" edge="1">
          <mxGeometry relative="1" as="geometry" />
        </mxCell>
        <mxCell id="0DJ1_prsKRT6LsEzTFI5-18" value="Send commands to Arduino Uno" style="rounded=1;whiteSpace=wrap;html=1;fontSize=12;glass=0;strokeWidth=1;shadow=0;fillColor=#fad9d5;strokeColor=#ae4132;fontColor=#000000;" parent="WIyWlLk6GJQsqaUBKTNV-1" vertex="1">
          <mxGeometry x="380" y="630" width="120" height="40" as="geometry" />
        </mxCell>
        <mxCell id="0DJ1_prsKRT6LsEzTFI5-19" value="Send commands to L298N" style="rounded=1;whiteSpace=wrap;html=1;fontSize=12;glass=0;strokeWidth=1;shadow=0;fillColor=#fad9d5;strokeColor=#ae4132;fontColor=#000000;" parent="WIyWlLk6GJQsqaUBKTNV-1" vertex="1">
          <mxGeometry x="304" y="820" width="120" height="40" as="geometry" />
        </mxCell>
        <mxCell id="0DJ1_prsKRT6LsEzTFI5-20" value="Send commands to SG-90(s)" style="rounded=1;whiteSpace=wrap;html=1;fontSize=12;glass=0;strokeWidth=1;shadow=0;fillColor=#fad9d5;strokeColor=#ae4132;fontColor=#000000;" parent="WIyWlLk6GJQsqaUBKTNV-1" vertex="1">
          <mxGeometry x="450" y="820" width="120" height="40" as="geometry" />
        </mxCell>
        <mxCell id="0DJ1_prsKRT6LsEzTFI5-25" style="edgeStyle=orthogonalEdgeStyle;rounded=0;orthogonalLoop=1;jettySize=auto;html=1;exitX=0.5;exitY=1;exitDx=0;exitDy=0;entryX=0.5;entryY=0;entryDx=0;entryDy=0;strokeColor=#000000;" parent="WIyWlLk6GJQsqaUBKTNV-1" source="0DJ1_prsKRT6LsEzTFI5-21" target="0DJ1_prsKRT6LsEzTFI5-19" edge="1">
          <mxGeometry relative="1" as="geometry" />
        </mxCell>
        <mxCell id="0DJ1_prsKRT6LsEzTFI5-21" value="Commands&lt;div&gt;for L298N?&lt;/div&gt;" style="rhombus;whiteSpace=wrap;html=1;shadow=0;fontFamily=Helvetica;fontSize=12;align=center;strokeWidth=1;spacing=6;spacingTop=-4;fillColor=#fad7ac;strokeColor=#b46504;fontColor=#000000;" parent="WIyWlLk6GJQsqaUBKTNV-1" vertex="1">
          <mxGeometry x="314" y="710" width="100" height="80" as="geometry" />
        </mxCell>
        <mxCell id="0DJ1_prsKRT6LsEzTFI5-26" style="edgeStyle=orthogonalEdgeStyle;rounded=0;orthogonalLoop=1;jettySize=auto;html=1;exitX=0.5;exitY=1;exitDx=0;exitDy=0;entryX=0.5;entryY=0;entryDx=0;entryDy=0;strokeColor=#000000;" parent="WIyWlLk6GJQsqaUBKTNV-1" source="0DJ1_prsKRT6LsEzTFI5-22" target="0DJ1_prsKRT6LsEzTFI5-20" edge="1">
          <mxGeometry relative="1" as="geometry" />
        </mxCell>
        <mxCell id="0DJ1_prsKRT6LsEzTFI5-22" value="Commands&lt;div&gt;for SG-90(s)?&lt;/div&gt;" style="rhombus;whiteSpace=wrap;html=1;shadow=0;fontFamily=Helvetica;fontSize=12;align=center;strokeWidth=1;spacing=6;spacingTop=-4;fillColor=#fad7ac;strokeColor=#b46504;fontColor=#000000;" parent="WIyWlLk6GJQsqaUBKTNV-1" vertex="1">
          <mxGeometry x="460" y="710" width="100" height="80" as="geometry" />
        </mxCell>
        <mxCell id="0DJ1_prsKRT6LsEzTFI5-27" value="&lt;font color=&quot;#000000&quot; style=&quot;font-size: 11px;&quot;&gt;Yes&lt;/font&gt;" style="text;html=1;align=center;verticalAlign=middle;resizable=0;points=[];autosize=1;strokeColor=none;fillColor=none;fontSize=11;" parent="WIyWlLk6GJQsqaUBKTNV-1" vertex="1">
          <mxGeometry x="503" y="786" width="40" height="30" as="geometry" />
        </mxCell>
        <mxCell id="0DJ1_prsKRT6LsEzTFI5-28" value="&lt;font color=&quot;#000000&quot; style=&quot;font-size: 11px;&quot;&gt;Yes&lt;/font&gt;" style="text;html=1;align=center;verticalAlign=middle;resizable=0;points=[];autosize=1;strokeColor=none;fillColor=none;fontSize=11;" parent="WIyWlLk6GJQsqaUBKTNV-1" vertex="1">
          <mxGeometry x="358" y="785" width="40" height="30" as="geometry" />
        </mxCell>
        <mxCell id="0DJ1_prsKRT6LsEzTFI5-29" value="&lt;font color=&quot;#000000&quot; style=&quot;font-size: 11px;&quot;&gt;Yes&lt;/font&gt;" style="text;html=1;align=center;verticalAlign=middle;resizable=0;points=[];autosize=1;strokeColor=none;fillColor=none;fontSize=11;" parent="WIyWlLk6GJQsqaUBKTNV-1" vertex="1">
          <mxGeometry x="432" y="525" width="40" height="30" as="geometry" />
        </mxCell>
      </root>
    </mxGraphModel>
  </diagram>
</mxfile>
